<svg xmlns="http://www.w3.org/2000/svg" xmlns:xlink="http://www.w3.org/1999/xlink" width="500" zoomAndPan="magnify" viewBox="0 0 375 374.999991" height="500" preserveAspectRatio="xMidYMid meet" version="1.0"><defs><clipPath id="6d6720bb3d"><path d="M 7.902344 7.902344 L 366.808594 7.902344 L 366.808594 366.808594 L 7.902344 366.808594 Z M 7.902344 7.902344 " clip-rule="nonzero"/></clipPath><clipPath id="4a67638c0f"><path d="M 108.976562 107.671875 L 263.148438 107.671875 L 263.148438 269.183594 L 108.976562 269.183594 Z M 108.976562 107.671875 " clip-rule="nonzero"/></clipPath></defs><g clip-path="url(#6d6720bb3d)"><path fill="#9b7956" d="M 187.355469 366.808594 C 139.445312 366.808594 94.332031 348.160156 60.476562 314.238281 C 26.550781 280.382812 7.902344 235.269531 7.902344 187.355469 C 7.902344 139.445312 26.550781 94.332031 60.476562 60.476562 C 94.332031 26.550781 139.445312 7.902344 187.355469 7.902344 C 235.269531 7.902344 280.382812 26.550781 314.238281 60.476562 C 348.160156 94.402344 366.808594 139.445312 366.808594 187.355469 C 366.808594 235.269531 348.160156 280.382812 314.238281 314.238281 C 280.382812 348.160156 235.269531 366.808594 187.355469 366.808594 Z M 187.355469 18.660156 C 142.3125 18.660156 99.925781 36.234375 68.078125 68.078125 C 36.234375 99.925781 18.660156 142.3125 18.660156 187.355469 C 18.660156 232.398438 36.234375 274.789062 68.078125 306.632812 C 99.925781 338.480469 142.3125 356.050781 187.355469 356.050781 C 232.398438 356.050781 274.789062 338.480469 306.632812 306.632812 C 338.480469 274.789062 356.050781 232.398438 356.050781 187.355469 C 356.050781 142.3125 338.480469 99.925781 306.632812 68.078125 C 274.789062 36.234375 232.398438 18.660156 187.355469 18.660156 Z M 187.355469 18.660156 " fill-opacity="1" fill-rule="nonzero"/></g><g clip-path="url(#4a67638c0f)"><path fill="#9b7956" d="M 217.140625 232.632812 C 218.34375 232.632812 219.535156 233.007812 220.554688 233.746094 L 242.121094 249.394531 L 236.957031 220.09375 C 236.617188 218.175781 237.1875 216.199219 238.488281 214.796875 C 247.476562 205.039062 251.304688 194.402344 251.304688 179.234375 C 251.304688 163.523438 244.609375 148.71875 232.449219 137.53125 C 220.082031 126.171875 203.617188 119.921875 186.0625 119.921875 C 150.101562 119.933594 120.835938 146.527344 120.835938 179.234375 C 120.835938 211.941406 150.089844 238.546875 186.0625 238.546875 C 198.128906 238.546875 206.679688 236.941406 214.6875 233.195312 C 215.464844 232.820312 216.300781 232.632812 217.140625 232.632812 M 250.539062 269.097656 C 249.347656 269.097656 248.144531 268.722656 247.125 267.984375 L 216.421875 245.699219 C 207.726562 249.230469 198.417969 250.757812 186.074219 250.757812 C 143.554688 250.757812 108.976562 218.679688 108.976562 179.234375 C 108.976562 139.789062 143.554688 107.695312 186.0625 107.695312 C 206.523438 107.695312 225.804688 115.046875 240.320312 128.414062 C 255.035156 141.941406 263.148438 159.992188 263.148438 179.234375 C 263.148438 196.394531 258.800781 209.382812 249.128906 220.882812 L 256.371094 261.90625 C 256.796875 264.351562 255.761719 266.816406 253.734375 268.15625 C 252.75 268.785156 251.644531 269.097656 250.539062 269.097656 " fill-opacity="1" fill-rule="nonzero"/></g></svg>