<svg xmlns="http://www.w3.org/2000/svg" xmlns:xlink="http://www.w3.org/1999/xlink" width="500" zoomAndPan="magnify" viewBox="0 0 375 374.999991" height="500" preserveAspectRatio="xMidYMid meet" version="1.0"><defs><clipPath id="27d8117495"><path d="M 6.929688 6.929688 L 367.78125 6.929688 L 367.78125 367.78125 L 6.929688 367.78125 Z M 6.929688 6.929688 " clip-rule="nonzero"/></clipPath><clipPath id="55c1d0736c"><path d="M 114.070312 103 L 261.699219 103 L 261.699219 274.503906 L 114.070312 274.503906 Z M 114.070312 103 " clip-rule="nonzero"/></clipPath><clipPath id="8788f6cc47"><path d="M 140 97.355469 L 155 97.355469 L 155 124 L 140 124 Z M 140 97.355469 " clip-rule="nonzero"/></clipPath><clipPath id="ea39fce09f"><path d="M 167 97.355469 L 182 97.355469 L 182 124 L 167 124 Z M 167 97.355469 " clip-rule="nonzero"/></clipPath><clipPath id="55352f4f39"><path d="M 194 97.355469 L 209 97.355469 L 209 124 L 194 124 Z M 194 97.355469 " clip-rule="nonzero"/></clipPath><clipPath id="676a01113d"><path d="M 221 97.355469 L 235 97.355469 L 235 124 L 221 124 Z M 221 97.355469 " clip-rule="nonzero"/></clipPath></defs><g clip-path="url(#27d8117495)"><path fill="#9b7956" d="M 187.355469 367.78125 C 139.183594 367.78125 93.828125 349.03125 59.789062 314.921875 C 25.679688 280.886719 6.929688 235.527344 6.929688 187.355469 C 6.929688 139.183594 25.679688 93.824219 59.789062 59.789062 C 93.828125 25.679688 139.183594 6.929688 187.355469 6.929688 C 235.527344 6.929688 280.886719 25.679688 314.921875 59.789062 C 349.03125 93.898438 367.78125 139.183594 367.78125 187.355469 C 367.78125 235.527344 349.03125 280.886719 314.921875 314.921875 C 280.886719 349.03125 235.527344 367.78125 187.355469 367.78125 Z M 187.355469 17.746094 C 142.070312 17.746094 99.449219 35.414062 67.433594 67.433594 C 35.414062 99.449219 17.746094 142.070312 17.746094 187.355469 C 17.746094 232.640625 35.414062 275.261719 67.433594 307.277344 C 99.449219 339.296875 142.070312 356.964844 187.355469 356.964844 C 232.640625 356.964844 275.261719 339.296875 307.277344 307.277344 C 339.296875 275.261719 356.964844 232.640625 356.964844 187.355469 C 356.964844 142.070312 339.296875 99.449219 307.277344 67.433594 C 275.261719 35.414062 232.640625 17.746094 187.355469 17.746094 Z M 187.355469 17.746094 " fill-opacity="1" fill-rule="nonzero"/></g><g clip-path="url(#55c1d0736c)"><path fill="#9b7956" d="M 254.988281 274.464844 L 142.390625 274.464844 C 141.949219 274.464844 141.511719 274.421875 141.082031 274.339844 C 140.648438 274.253906 140.230469 274.132812 139.820312 273.964844 C 139.414062 273.800781 139.027344 273.601562 138.660156 273.359375 C 138.296875 273.121094 137.957031 272.847656 137.644531 272.542969 C 137.332031 272.242188 137.054688 271.910156 136.808594 271.550781 C 136.566406 271.191406 136.359375 270.816406 136.191406 270.417969 C 136.019531 270.019531 135.894531 269.609375 135.808594 269.1875 C 135.722656 268.765625 135.679688 268.339844 135.679688 267.90625 C 135.679688 267.476562 135.722656 267.050781 135.808594 266.628906 C 135.894531 266.207031 136.019531 265.796875 136.191406 265.398438 C 136.359375 265 136.566406 264.621094 136.808594 264.265625 C 137.054688 263.90625 137.332031 263.574219 137.644531 263.269531 C 137.957031 262.964844 138.296875 262.695312 138.660156 262.453125 C 139.027344 262.214844 139.414062 262.011719 139.820312 261.847656 C 140.230469 261.683594 140.648438 261.558594 141.082031 261.476562 C 141.511719 261.390625 141.949219 261.347656 142.390625 261.347656 L 248.277344 261.347656 L 248.277344 117.066406 L 127.492188 117.066406 L 127.492188 267.90625 C 127.492188 268.339844 127.449219 268.765625 127.363281 269.1875 C 127.277344 269.609375 127.152344 270.019531 126.980469 270.417969 C 126.8125 270.816406 126.605469 271.191406 126.363281 271.550781 C 126.117188 271.910156 125.839844 272.242188 125.527344 272.542969 C 125.214844 272.847656 124.875 273.121094 124.511719 273.359375 C 124.144531 273.601562 123.757812 273.800781 123.351562 273.964844 C 122.941406 274.132812 122.523438 274.253906 122.089844 274.339844 C 121.660156 274.421875 121.222656 274.464844 120.78125 274.464844 C 120.34375 274.464844 119.90625 274.421875 119.472656 274.339844 C 119.042969 274.253906 118.621094 274.132812 118.214844 273.964844 C 117.808594 273.800781 117.421875 273.601562 117.054688 273.359375 C 116.6875 273.121094 116.347656 272.847656 116.039062 272.542969 C 115.726562 272.242188 115.449219 271.910156 115.203125 271.550781 C 114.957031 271.191406 114.75 270.816406 114.582031 270.417969 C 114.414062 270.019531 114.289062 269.609375 114.199219 269.1875 C 114.113281 268.765625 114.070312 268.339844 114.070312 267.90625 L 114.070312 110.507812 C 114.070312 110.078125 114.113281 109.652344 114.199219 109.230469 C 114.289062 108.808594 114.414062 108.398438 114.582031 108 C 114.75 107.601562 114.957031 107.222656 115.203125 106.867188 C 115.449219 106.507812 115.726562 106.175781 116.039062 105.871094 C 116.347656 105.566406 116.6875 105.296875 117.054688 105.054688 C 117.421875 104.816406 117.808594 104.613281 118.214844 104.449219 C 118.621094 104.285156 119.042969 104.160156 119.472656 104.078125 C 119.90625 103.992188 120.34375 103.953125 120.78125 103.953125 L 254.988281 103.953125 C 255.425781 103.953125 255.863281 103.992188 256.296875 104.078125 C 256.726562 104.160156 257.148438 104.285156 257.554688 104.449219 C 257.960938 104.613281 258.347656 104.816406 258.714844 105.054688 C 259.082031 105.296875 259.421875 105.566406 259.730469 105.871094 C 260.042969 106.175781 260.320312 106.507812 260.566406 106.867188 C 260.8125 107.222656 261.019531 107.601562 261.1875 108 C 261.355469 108.398438 261.480469 108.808594 261.566406 109.230469 C 261.65625 109.652344 261.699219 110.078125 261.699219 110.507812 L 261.699219 267.90625 C 261.699219 268.339844 261.65625 268.765625 261.566406 269.1875 C 261.480469 269.609375 261.355469 270.019531 261.1875 270.417969 C 261.019531 270.816406 260.8125 271.191406 260.566406 271.550781 C 260.320312 271.910156 260.042969 272.242188 259.730469 272.542969 C 259.421875 272.847656 259.082031 273.121094 258.714844 273.359375 C 258.347656 273.601562 257.960938 273.800781 257.554688 273.964844 C 257.148438 274.132812 256.726562 274.253906 256.296875 274.339844 C 255.863281 274.421875 255.425781 274.464844 254.988281 274.464844 Z M 254.988281 274.464844 " fill-opacity="1" fill-rule="nonzero"/></g><g clip-path="url(#8788f6cc47)"><path fill="#9b7956" d="M 147.625 123.625 C 147.183594 123.625 146.746094 123.582031 146.3125 123.5 C 145.882812 123.414062 145.460938 123.292969 145.054688 123.125 C 144.648438 122.960938 144.261719 122.761719 143.894531 122.519531 C 143.527344 122.28125 143.191406 122.007812 142.878906 121.703125 C 142.566406 121.402344 142.289062 121.070312 142.042969 120.710938 C 141.800781 120.351562 141.59375 119.976562 141.425781 119.578125 C 141.253906 119.179688 141.128906 118.769531 141.042969 118.347656 C 140.957031 117.925781 140.914062 117.5 140.914062 117.066406 L 140.914062 103.953125 C 140.914062 103.519531 140.957031 103.09375 141.042969 102.671875 C 141.128906 102.25 141.253906 101.839844 141.425781 101.441406 C 141.59375 101.042969 141.800781 100.664062 142.042969 100.308594 C 142.289062 99.949219 142.566406 99.617188 142.878906 99.3125 C 143.191406 99.007812 143.527344 98.738281 143.894531 98.5 C 144.261719 98.257812 144.648438 98.058594 145.054688 97.890625 C 145.460938 97.726562 145.882812 97.601562 146.3125 97.519531 C 146.746094 97.433594 147.183594 97.394531 147.625 97.394531 C 148.0625 97.394531 148.5 97.433594 148.933594 97.519531 C 149.363281 97.601562 149.785156 97.726562 150.191406 97.890625 C 150.597656 98.058594 150.984375 98.257812 151.351562 98.5 C 151.71875 98.738281 152.058594 99.007812 152.367188 99.3125 C 152.679688 99.617188 152.957031 99.949219 153.203125 100.308594 C 153.449219 100.664062 153.652344 101.042969 153.824219 101.441406 C 153.992188 101.839844 154.117188 102.25 154.203125 102.671875 C 154.289062 103.09375 154.332031 103.519531 154.332031 103.953125 L 154.332031 117.066406 C 154.332031 117.5 154.289062 117.925781 154.203125 118.347656 C 154.117188 118.769531 153.992188 119.179688 153.824219 119.578125 C 153.652344 119.976562 153.449219 120.351562 153.203125 120.710938 C 152.957031 121.070312 152.679688 121.402344 152.367188 121.703125 C 152.058594 122.007812 151.71875 122.28125 151.351562 122.519531 C 150.984375 122.761719 150.597656 122.960938 150.191406 123.125 C 149.785156 123.292969 149.363281 123.414062 148.933594 123.5 C 148.5 123.582031 148.0625 123.625 147.625 123.625 Z M 147.625 123.625 " fill-opacity="1" fill-rule="nonzero"/></g><g clip-path="url(#ea39fce09f)"><path fill="#9b7956" d="M 174.464844 123.625 C 174.023438 123.625 173.585938 123.582031 173.15625 123.5 C 172.722656 123.414062 172.304688 123.292969 171.894531 123.125 C 171.488281 122.960938 171.101562 122.761719 170.734375 122.519531 C 170.371094 122.28125 170.03125 122.007812 169.71875 121.703125 C 169.40625 121.402344 169.128906 121.070312 168.886719 120.710938 C 168.640625 120.351562 168.433594 119.976562 168.265625 119.578125 C 168.097656 119.179688 167.96875 118.769531 167.882812 118.347656 C 167.796875 117.925781 167.753906 117.5 167.753906 117.066406 L 167.753906 103.953125 C 167.753906 103.519531 167.796875 103.09375 167.882812 102.671875 C 167.96875 102.25 168.097656 101.839844 168.265625 101.441406 C 168.433594 101.042969 168.640625 100.664062 168.886719 100.308594 C 169.128906 99.949219 169.40625 99.617188 169.71875 99.3125 C 170.03125 99.007812 170.371094 98.738281 170.734375 98.5 C 171.101562 98.257812 171.488281 98.058594 171.894531 97.890625 C 172.304688 97.726562 172.722656 97.601562 173.15625 97.519531 C 173.585938 97.433594 174.023438 97.394531 174.464844 97.394531 C 174.90625 97.394531 175.339844 97.433594 175.773438 97.519531 C 176.207031 97.601562 176.625 97.726562 177.03125 97.890625 C 177.4375 98.058594 177.824219 98.257812 178.191406 98.5 C 178.558594 98.738281 178.898438 99.007812 179.210938 99.3125 C 179.519531 99.617188 179.800781 99.949219 180.042969 100.308594 C 180.289062 100.664062 180.496094 101.042969 180.664062 101.441406 C 180.832031 101.839844 180.960938 102.25 181.046875 102.671875 C 181.132812 103.09375 181.175781 103.519531 181.175781 103.953125 L 181.175781 117.066406 C 181.175781 117.5 181.132812 117.925781 181.046875 118.347656 C 180.960938 118.769531 180.832031 119.179688 180.664062 119.578125 C 180.496094 119.976562 180.289062 120.351562 180.042969 120.710938 C 179.800781 121.070312 179.519531 121.402344 179.210938 121.703125 C 178.898438 122.007812 178.558594 122.28125 178.191406 122.519531 C 177.824219 122.761719 177.4375 122.960938 177.03125 123.125 C 176.625 123.292969 176.207031 123.414062 175.773438 123.5 C 175.339844 123.582031 174.90625 123.625 174.464844 123.625 Z M 174.464844 123.625 " fill-opacity="1" fill-rule="nonzero"/></g><g clip-path="url(#55352f4f39)"><path fill="#9b7956" d="M 201.304688 123.625 C 200.863281 123.625 200.429688 123.582031 199.996094 123.5 C 199.5625 123.414062 199.144531 123.292969 198.738281 123.125 C 198.332031 122.960938 197.945312 122.761719 197.578125 122.519531 C 197.210938 122.28125 196.871094 122.007812 196.558594 121.703125 C 196.25 121.402344 195.96875 121.070312 195.726562 120.710938 C 195.480469 120.351562 195.273438 119.976562 195.105469 119.578125 C 194.9375 119.179688 194.808594 118.769531 194.722656 118.347656 C 194.636719 117.925781 194.59375 117.5 194.59375 117.066406 L 194.59375 103.953125 C 194.59375 103.519531 194.636719 103.09375 194.722656 102.671875 C 194.808594 102.25 194.9375 101.839844 195.105469 101.441406 C 195.273438 101.042969 195.480469 100.664062 195.726562 100.308594 C 195.96875 99.949219 196.25 99.617188 196.558594 99.3125 C 196.871094 99.007812 197.210938 98.738281 197.578125 98.5 C 197.945312 98.257812 198.332031 98.058594 198.738281 97.890625 C 199.144531 97.726562 199.5625 97.601562 199.996094 97.519531 C 200.429688 97.433594 200.863281 97.394531 201.304688 97.394531 C 201.746094 97.394531 202.183594 97.433594 202.613281 97.519531 C 203.046875 97.601562 203.464844 97.726562 203.875 97.890625 C 204.28125 98.058594 204.667969 98.257812 205.035156 98.5 C 205.398438 98.738281 205.738281 99.007812 206.050781 99.3125 C 206.363281 99.617188 206.640625 99.949219 206.882812 100.308594 C 207.128906 100.664062 207.335938 101.042969 207.503906 101.441406 C 207.671875 101.839844 207.800781 102.25 207.886719 102.671875 C 207.972656 103.09375 208.015625 103.519531 208.015625 103.953125 L 208.015625 117.066406 C 208.015625 117.5 207.972656 117.925781 207.886719 118.347656 C 207.800781 118.769531 207.671875 119.179688 207.503906 119.578125 C 207.335938 119.976562 207.128906 120.351562 206.882812 120.710938 C 206.640625 121.070312 206.363281 121.402344 206.050781 121.703125 C 205.738281 122.007812 205.398438 122.28125 205.035156 122.519531 C 204.667969 122.761719 204.28125 122.960938 203.875 123.125 C 203.464844 123.292969 203.046875 123.414062 202.613281 123.5 C 202.183594 123.582031 201.746094 123.625 201.304688 123.625 Z M 201.304688 123.625 " fill-opacity="1" fill-rule="nonzero"/></g><g clip-path="url(#676a01113d)"><path fill="#9b7956" d="M 228.144531 123.625 C 227.707031 123.625 227.269531 123.582031 226.835938 123.5 C 226.40625 123.414062 225.984375 123.292969 225.578125 123.125 C 225.171875 122.960938 224.785156 122.761719 224.417969 122.519531 C 224.050781 122.28125 223.710938 122.007812 223.402344 121.703125 C 223.089844 121.402344 222.8125 121.070312 222.566406 120.710938 C 222.320312 120.351562 222.117188 119.976562 221.945312 119.578125 C 221.777344 119.179688 221.652344 118.769531 221.566406 118.347656 C 221.480469 117.925781 221.4375 117.5 221.4375 117.066406 L 221.4375 103.953125 C 221.4375 103.519531 221.480469 103.09375 221.566406 102.671875 C 221.652344 102.25 221.777344 101.839844 221.945312 101.441406 C 222.117188 101.042969 222.320312 100.664062 222.566406 100.308594 C 222.8125 99.949219 223.089844 99.617188 223.402344 99.3125 C 223.710938 99.007812 224.050781 98.738281 224.417969 98.5 C 224.785156 98.257812 225.171875 98.058594 225.578125 97.890625 C 225.984375 97.726562 226.40625 97.601562 226.835938 97.519531 C 227.269531 97.433594 227.707031 97.394531 228.144531 97.394531 C 228.585938 97.394531 229.023438 97.433594 229.457031 97.519531 C 229.886719 97.601562 230.308594 97.726562 230.714844 97.890625 C 231.121094 98.058594 231.507812 98.257812 231.875 98.5 C 232.242188 98.738281 232.578125 99.007812 232.890625 99.3125 C 233.203125 99.617188 233.480469 99.949219 233.726562 100.308594 C 233.96875 100.664062 234.175781 101.042969 234.34375 101.441406 C 234.515625 101.839844 234.640625 102.25 234.726562 102.671875 C 234.8125 103.09375 234.855469 103.519531 234.855469 103.953125 L 234.855469 117.066406 C 234.855469 117.5 234.8125 117.925781 234.726562 118.347656 C 234.640625 118.769531 234.515625 119.179688 234.34375 119.578125 C 234.175781 119.976562 233.96875 120.351562 233.726562 120.710938 C 233.480469 121.070312 233.203125 121.402344 232.890625 121.703125 C 232.578125 122.007812 232.242188 122.28125 231.875 122.519531 C 231.507812 122.761719 231.121094 122.960938 230.714844 123.125 C 230.308594 123.292969 229.886719 123.414062 229.457031 123.5 C 229.023438 123.582031 228.585938 123.625 228.144531 123.625 Z M 228.144531 123.625 " fill-opacity="1" fill-rule="nonzero"/></g><path fill="#9b7956" d="M 181.175781 182.648438 C 180.28125 182.65625 179.425781 182.492188 178.597656 182.164062 C 177.773438 181.832031 177.042969 181.363281 176.410156 180.75 L 162.988281 167.632812 C 162.675781 167.324219 162.398438 166.992188 162.152344 166.632812 C 161.90625 166.273438 161.699219 165.894531 161.527344 165.496094 C 161.359375 165.097656 161.230469 164.683594 161.144531 164.261719 C 161.058594 163.835938 161.015625 163.40625 161.015625 162.976562 C 161.015625 162.542969 161.058594 162.113281 161.144531 161.691406 C 161.230469 161.265625 161.359375 160.855469 161.527344 160.457031 C 161.699219 160.054688 161.90625 159.675781 162.152344 159.316406 C 162.398438 158.957031 162.675781 158.625 162.988281 158.320312 C 163.300781 158.011719 163.644531 157.742188 164.011719 157.5 C 164.378906 157.261719 164.765625 157.058594 165.175781 156.890625 C 165.585938 156.726562 166.003906 156.601562 166.441406 156.515625 C 166.875 156.433594 167.3125 156.390625 167.753906 156.390625 C 168.195312 156.390625 168.632812 156.433594 169.070312 156.515625 C 169.503906 156.601562 169.921875 156.726562 170.332031 156.890625 C 170.742188 157.058594 171.128906 157.261719 171.496094 157.5 C 171.863281 157.742188 172.207031 158.011719 172.519531 158.320312 L 181.175781 166.84375 L 203.25 145.203125 C 203.5625 144.898438 203.90625 144.625 204.273438 144.386719 C 204.640625 144.144531 205.027344 143.941406 205.4375 143.777344 C 205.84375 143.613281 206.265625 143.488281 206.699219 143.402344 C 207.132812 143.320312 207.570312 143.277344 208.015625 143.277344 C 208.457031 143.277344 208.894531 143.320312 209.328125 143.40625 C 209.761719 143.488281 210.183594 143.613281 210.589844 143.777344 C 211 143.945312 211.386719 144.148438 211.753906 144.386719 C 212.125 144.628906 212.464844 144.902344 212.777344 145.207031 C 213.089844 145.511719 213.367188 145.84375 213.613281 146.203125 C 213.859375 146.5625 214.066406 146.941406 214.234375 147.339844 C 214.40625 147.742188 214.535156 148.152344 214.621094 148.574219 C 214.707031 149 214.75 149.429688 214.75 149.859375 C 214.75 150.292969 214.707031 150.71875 214.621094 151.144531 C 214.535156 151.566406 214.40625 151.980469 214.238281 152.378906 C 214.070312 152.777344 213.863281 153.15625 213.617188 153.515625 C 213.371094 153.875 213.09375 154.210938 212.78125 154.515625 L 185.9375 180.75 C 185.304688 181.363281 184.578125 181.832031 183.75 182.164062 C 182.925781 182.492188 182.066406 182.65625 181.175781 182.648438 Z M 181.175781 182.648438 " fill-opacity="1" fill-rule="nonzero"/><path fill="#9b7956" d="M 208.015625 215.441406 L 167.753906 215.441406 C 167.3125 215.441406 166.878906 215.398438 166.445312 215.316406 C 166.011719 215.230469 165.59375 215.105469 165.1875 214.941406 C 164.777344 214.777344 164.390625 214.574219 164.027344 214.335938 C 163.660156 214.097656 163.320312 213.824219 163.007812 213.519531 C 162.699219 213.214844 162.417969 212.886719 162.175781 212.527344 C 161.929688 212.167969 161.722656 211.789062 161.554688 211.394531 C 161.386719 210.996094 161.257812 210.585938 161.171875 210.164062 C 161.085938 209.742188 161.042969 209.3125 161.042969 208.882812 C 161.042969 208.453125 161.085938 208.027344 161.171875 207.605469 C 161.257812 207.179688 161.386719 206.769531 161.554688 206.375 C 161.722656 205.976562 161.929688 205.597656 162.175781 205.238281 C 162.417969 204.882812 162.699219 204.550781 163.007812 204.246094 C 163.320312 203.941406 163.660156 203.667969 164.027344 203.429688 C 164.390625 203.191406 164.777344 202.988281 165.1875 202.824219 C 165.59375 202.660156 166.011719 202.535156 166.445312 202.449219 C 166.878906 202.367188 167.3125 202.324219 167.753906 202.324219 L 208.015625 202.324219 C 208.457031 202.324219 208.890625 202.367188 209.324219 202.449219 C 209.757812 202.535156 210.175781 202.660156 210.582031 202.824219 C 210.992188 202.988281 211.378906 203.191406 211.742188 203.429688 C 212.109375 203.667969 212.449219 203.941406 212.761719 204.246094 C 213.070312 204.550781 213.351562 204.882812 213.59375 205.238281 C 213.839844 205.597656 214.046875 205.976562 214.214844 206.375 C 214.382812 206.769531 214.511719 207.179688 214.597656 207.605469 C 214.683594 208.027344 214.726562 208.453125 214.726562 208.882812 C 214.726562 209.3125 214.683594 209.742188 214.597656 210.164062 C 214.511719 210.585938 214.382812 210.996094 214.214844 211.394531 C 214.046875 211.789062 213.839844 212.167969 213.59375 212.527344 C 213.351562 212.886719 213.070312 213.214844 212.761719 213.519531 C 212.449219 213.824219 212.109375 214.097656 211.742188 214.335938 C 211.378906 214.574219 210.992188 214.777344 210.582031 214.941406 C 210.175781 215.105469 209.757812 215.230469 209.324219 215.316406 C 208.890625 215.398438 208.457031 215.441406 208.015625 215.441406 Z M 208.015625 215.441406 " fill-opacity="1" fill-rule="nonzero"/><path fill="#9b7956" d="M 208.015625 241.675781 L 167.753906 241.675781 C 167.3125 241.675781 166.878906 241.632812 166.445312 241.546875 C 166.011719 241.464844 165.59375 241.339844 165.1875 241.175781 C 164.777344 241.011719 164.390625 240.808594 164.027344 240.570312 C 163.660156 240.328125 163.320312 240.058594 163.007812 239.753906 C 162.699219 239.449219 162.417969 239.117188 162.175781 238.761719 C 161.929688 238.402344 161.722656 238.023438 161.554688 237.625 C 161.386719 237.226562 161.257812 236.816406 161.171875 236.394531 C 161.085938 235.972656 161.042969 235.546875 161.042969 235.117188 C 161.042969 234.6875 161.085938 234.257812 161.171875 233.835938 C 161.257812 233.414062 161.386719 233.003906 161.554688 232.605469 C 161.722656 232.207031 161.929688 231.832031 162.175781 231.472656 C 162.417969 231.113281 162.699219 230.785156 163.007812 230.480469 C 163.320312 230.175781 163.660156 229.902344 164.027344 229.664062 C 164.390625 229.425781 164.777344 229.222656 165.1875 229.058594 C 165.59375 228.890625 166.011719 228.769531 166.445312 228.683594 C 166.878906 228.601562 167.3125 228.558594 167.753906 228.558594 L 208.015625 228.558594 C 208.457031 228.558594 208.890625 228.601562 209.324219 228.683594 C 209.757812 228.769531 210.175781 228.890625 210.582031 229.058594 C 210.992188 229.222656 211.378906 229.425781 211.742188 229.664062 C 212.109375 229.902344 212.449219 230.175781 212.761719 230.480469 C 213.070312 230.785156 213.351562 231.113281 213.59375 231.472656 C 213.839844 231.832031 214.046875 232.207031 214.214844 232.605469 C 214.382812 233.003906 214.511719 233.414062 214.597656 233.835938 C 214.683594 234.257812 214.726562 234.6875 214.726562 235.117188 C 214.726562 235.546875 214.683594 235.972656 214.597656 236.394531 C 214.511719 236.816406 214.382812 237.226562 214.214844 237.625 C 214.046875 238.023438 213.839844 238.402344 213.59375 238.761719 C 213.351562 239.117188 213.070312 239.449219 212.761719 239.753906 C 212.449219 240.058594 212.109375 240.328125 211.742188 240.570312 C 211.378906 240.808594 210.992188 241.011719 210.582031 241.175781 C 210.175781 241.339844 209.757812 241.464844 209.324219 241.546875 C 208.890625 241.632812 208.457031 241.675781 208.015625 241.675781 Z M 208.015625 241.675781 " fill-opacity="1" fill-rule="nonzero"/></svg>