<svg xmlns="http://www.w3.org/2000/svg" xmlns:xlink="http://www.w3.org/1999/xlink" width="500" zoomAndPan="magnify" viewBox="0 0 375 374.999991" height="500" preserveAspectRatio="xMidYMid meet" version="1.0"><defs><clipPath id="d96ef79353"><path d="M 7.367188 7.367188 L 367.34375 7.367188 L 367.34375 367.34375 L 7.367188 367.34375 Z M 7.367188 7.367188 " clip-rule="nonzero"/></clipPath><clipPath id="74fad73a71"><path d="M 124 75 L 262 75 L 262 294.296875 L 124 294.296875 Z M 124 75 " clip-rule="nonzero"/></clipPath></defs><g clip-path="url(#d96ef79353)"><path fill="#9b7956" d="M 187.355469 367.34375 C 139.300781 367.34375 94.050781 348.640625 60.097656 314.613281 C 26.070312 280.660156 7.367188 235.410156 7.367188 187.355469 C 7.367188 139.300781 26.070312 94.050781 60.097656 60.097656 C 94.050781 26.070312 139.300781 7.367188 187.355469 7.367188 C 235.410156 7.367188 280.660156 26.070312 314.613281 60.097656 C 348.640625 94.125 367.34375 139.300781 367.34375 187.355469 C 367.34375 235.410156 348.640625 280.660156 314.613281 314.613281 C 280.660156 348.640625 235.410156 367.34375 187.355469 367.34375 Z M 187.355469 18.15625 C 142.179688 18.15625 99.664062 35.78125 67.722656 67.722656 C 35.78125 99.664062 18.15625 142.179688 18.15625 187.355469 C 18.15625 232.53125 35.78125 275.046875 67.722656 306.988281 C 99.664062 338.929688 142.179688 356.554688 187.355469 356.554688 C 232.53125 356.554688 275.046875 338.929688 306.988281 306.988281 C 338.929688 275.046875 356.554688 232.53125 356.554688 187.355469 C 356.554688 142.179688 338.929688 99.664062 306.988281 67.722656 C 275.046875 35.78125 232.53125 18.15625 187.355469 18.15625 Z M 187.355469 18.15625 " fill-opacity="1" fill-rule="nonzero"/></g><path fill="#9b7956" d="M 151.921875 256.441406 C 151.929688 256.53125 151.929688 256.453125 151.886719 255.933594 C 151.886719 255.9375 151.886719 255.945312 151.886719 255.949219 C 151.898438 256.113281 151.910156 256.277344 151.921875 256.441406 " fill-opacity="1" fill-rule="nonzero"/><g clip-path="url(#74fad73a71)"><path fill="#9b7956" d="M 171.957031 283.492188 C 171.746094 283.460938 171.503906 283.421875 171.476562 283.371094 C 171.476562 283.371094 171.738281 283.4375 171.957031 283.492188 Z M 160.390625 277.398438 C 160.378906 277.390625 160.367188 277.382812 160.355469 277.371094 C 160.367188 277.382812 160.378906 277.390625 160.390625 277.398438 Z M 260.902344 166.28125 C 263.40625 131.730469 243.261719 98.109375 213.078125 83.171875 C 198.8125 76.113281 181.777344 73.414062 166.34375 77.753906 C 151.695312 81.871094 138.710938 91.351562 130.109375 104.1875 C 127.988281 107.359375 126.160156 110.75 124.578125 114.238281 C 123.492188 116.632812 125.066406 119.929688 127.460938 120.726562 C 130.160156 121.621094 132.632812 120.335938 133.796875 117.773438 C 134.164062 116.960938 134.542969 116.15625 134.945312 115.359375 C 134.980469 115.285156 135.003906 115.234375 135.023438 115.199219 C 135.054688 115.144531 135.089844 115.082031 135.128906 115.007812 C 135.363281 114.582031 135.597656 114.15625 135.835938 113.734375 C 136.714844 112.195312 137.664062 110.691406 138.671875 109.234375 C 139.589844 107.914062 140.554688 106.628906 141.570312 105.386719 C 142.078125 104.765625 142.597656 104.15625 143.125 103.550781 C 143.214844 103.449219 143.28125 103.378906 143.332031 103.316406 C 143.390625 103.257812 143.460938 103.183594 143.566406 103.078125 C 143.898438 102.734375 144.226562 102.382812 144.5625 102.039062 C 149.640625 96.886719 154.320312 93.53125 160.472656 90.605469 C 162.039062 89.859375 163.640625 89.183594 165.265625 88.589844 C 166.65625 88.078125 167.453125 87.820312 169.472656 87.308594 C 172.617188 86.515625 175.824219 86.011719 179.058594 85.800781 C 179.078125 85.804688 180.148438 85.757812 180.117188 85.757812 C 180.558594 85.746094 181.003906 85.746094 181.445312 85.746094 C 182.421875 85.746094 183.394531 85.769531 184.367188 85.816406 C 186.308594 85.910156 188.246094 86.101562 190.167969 86.375 C 191.042969 86.503906 191.917969 86.644531 192.785156 86.804688 C 193.21875 86.886719 193.652344 86.972656 194.085938 87.0625 C 194.199219 87.085938 194.71875 87.199219 194.839844 87.222656 C 196.660156 87.644531 198.460938 88.175781 200.238281 88.757812 C 214.566406 93.476562 226.664062 102.578125 235.816406 114.816406 C 240.246094 120.734375 243.742188 127.136719 246.511719 134.464844 C 247.894531 138.121094 248.753906 141.035156 249.628906 145.132812 C 250.417969 148.832031 250.945312 152.589844 251.195312 156.371094 C 251.191406 156.347656 251.246094 157.355469 251.257812 157.441406 C 251.265625 157.71875 251.273438 157.996094 251.28125 158.273438 C 251.304688 159.273438 251.304688 160.277344 251.289062 161.28125 C 251.25 163.378906 251.125 165.476562 250.914062 167.5625 C 250.730469 169.378906 250.480469 171.1875 250.164062 172.984375 C 249.78125 175.1875 249.625 175.914062 249.050781 178.078125 C 248.027344 181.949219 246.695312 185.738281 245.074219 189.390625 C 243.566406 192.785156 242.144531 195.382812 239.945312 198.703125 C 235.671875 205.164062 230.957031 209.628906 225.175781 214.816406 C 219.632812 219.789062 213.855469 224.941406 210.027344 231.484375 C 205.375 239.433594 204.648438 248.234375 203.75 257.253906 C 203.546875 259.304688 203.308594 261.355469 202.953125 263.386719 C 202.894531 263.71875 202.847656 264.078125 202.78125 264.421875 C 202.75 264.507812 202.722656 264.601562 202.703125 264.675781 C 202.539062 265.28125 202.382812 265.882812 202.199219 266.480469 C 201.886719 267.492188 201.519531 268.492188 201.101562 269.464844 C 200.90625 269.917969 200.679688 270.355469 200.484375 270.808594 C 200.484375 270.808594 200.484375 270.808594 200.484375 270.8125 C 200.363281 271.023438 200.25 271.242188 200.125 271.453125 C 199.648438 272.277344 199.132812 273.074219 198.578125 273.847656 C 198.277344 274.265625 197.960938 274.675781 197.640625 275.078125 C 197.492188 275.257812 197.34375 275.433594 197.195312 275.613281 C 197.167969 275.648438 197.148438 275.671875 197.125 275.699219 C 195.753906 277.066406 194.378906 278.367188 192.804688 279.496094 C 192.585938 279.652344 192.359375 279.804688 192.136719 279.960938 C 192.042969 280.03125 191.992188 280.078125 191.96875 280.109375 C 191.75 280.222656 191.519531 280.320312 191.359375 280.414062 C 190.457031 280.929688 189.535156 281.398438 188.589844 281.820312 C 188.089844 282.042969 187.101562 282.632812 186.386719 282.808594 C 186.660156 282.730469 186.785156 282.597656 186.398438 282.707031 C 186.140625 282.78125 185.882812 282.867188 185.625 282.9375 C 185.105469 283.085938 184.585938 283.222656 184.058594 283.34375 C 183.183594 283.542969 182.300781 283.707031 181.410156 283.835938 C 180.921875 283.90625 180.433594 283.964844 179.941406 284.011719 C 179.820312 284.023438 179.453125 284.050781 179.128906 284.074219 C 179.011719 284.066406 178.089844 284.097656 177.898438 284.097656 C 177.449219 284.09375 177 284.078125 176.550781 284.054688 C 175.5625 284.003906 174.578125 283.90625 173.601562 283.761719 C 173.15625 283.695312 172.710938 283.621094 172.269531 283.535156 C 172.238281 283.527344 172.144531 283.519531 172.035156 283.503906 C 172.015625 283.496094 172 283.492188 171.976562 283.488281 C 170.972656 283.210938 169.976562 282.9375 168.996094 282.582031 C 168.101562 282.261719 167.222656 281.894531 166.359375 281.484375 C 166.15625 281.386719 165.894531 281.292969 165.648438 281.179688 C 165.59375 281.132812 165.519531 281.074219 165.425781 281.015625 C 165.152344 280.847656 164.871094 280.691406 164.597656 280.519531 C 163.8125 280.03125 163.050781 279.503906 162.316406 278.9375 C 161.945312 278.652344 161.582031 278.359375 161.222656 278.058594 C 161.007812 277.875 160.796875 277.683594 160.585938 277.5 C 160.175781 277.140625 160.144531 277.179688 160.300781 277.324219 C 159.640625 276.769531 159.003906 275.839844 158.519531 275.25 C 157.828125 274.410156 157.226562 273.511719 156.59375 272.625 C 156.496094 272.453125 156.390625 272.289062 156.292969 272.117188 C 156.035156 271.664062 155.785156 271.203125 155.546875 270.738281 C 155.007812 269.679688 154.527344 268.589844 154.101562 267.480469 C 153.894531 266.9375 153.722656 266.378906 153.523438 265.839844 C 153.519531 265.832031 153.519531 265.832031 153.519531 265.828125 C 153.425781 265.488281 153.328125 265.152344 153.238281 264.816406 C 152.902344 263.527344 152.628906 262.222656 152.417969 260.90625 C 152.210938 259.636719 152.0625 258.359375 151.960938 257.078125 C 151.945312 256.867188 151.933594 256.65625 151.921875 256.441406 C 151.910156 256.359375 151.890625 256.125 151.886719 256.003906 C 151.886719 255.984375 151.886719 255.96875 151.886719 255.949219 C 151.886719 255.925781 151.882812 255.902344 151.882812 255.878906 C 151.882812 255.898438 151.886719 255.914062 151.886719 255.933594 C 151.871094 255.117188 151.859375 254.300781 151.867188 253.484375 C 151.894531 250.855469 150.207031 248.144531 147.40625 248.015625 C 144.914062 247.902344 142.097656 249.761719 142.066406 252.585938 C 141.953125 263.90625 144.789062 275.710938 152.921875 283.855469 C 159.53125 290.476562 168.546875 294.28125 177.824219 294.136719 C 187 293.988281 196.238281 290.730469 202.859375 284.039062 C 206.359375 280.503906 209.121094 276.332031 210.875 271.609375 C 213.632812 264.175781 213.460938 256.074219 214.566406 248.308594 C 214.890625 246.050781 215.1875 244.507812 215.835938 242.460938 C 216.125 241.550781 216.457031 240.65625 216.828125 239.777344 C 217.027344 239.308594 217.242188 238.851562 217.457031 238.390625 C 217.496094 238.3125 217.53125 238.246094 217.558594 238.1875 C 217.71875 237.898438 217.878906 237.613281 218.046875 237.328125 C 219.953125 234.074219 222.164062 231.449219 224.355469 229.222656 C 230.09375 223.382812 236.578125 218.40625 242.03125 212.261719 C 253.128906 199.753906 259.683594 183.085938 260.902344 166.28125 " fill-opacity="1" fill-rule="nonzero"/></g><path fill="#9b7956" d="M 173.847656 220.710938 C 173.851562 220.769531 173.847656 220.839844 173.839844 220.914062 C 173.839844 220.917969 173.84375 220.921875 173.84375 220.921875 C 173.855469 220.847656 173.855469 220.777344 173.847656 220.710938 " fill-opacity="1" fill-rule="nonzero"/><path fill="#9b7956" d="M 173.835938 220.921875 C 173.835938 220.921875 173.835938 220.925781 173.835938 220.929688 C 173.839844 220.933594 173.839844 220.9375 173.84375 220.945312 C 173.84375 220.9375 173.84375 220.933594 173.84375 220.929688 C 173.84375 220.925781 173.839844 220.921875 173.835938 220.921875 " fill-opacity="1" fill-rule="nonzero"/><path fill="#9b7956" d="M 173.84375 220.929688 C 173.847656 220.933594 173.851562 220.9375 173.855469 220.941406 C 173.851562 220.933594 173.847656 220.929688 173.84375 220.921875 C 173.84375 220.925781 173.84375 220.925781 173.84375 220.929688 " fill-opacity="1" fill-rule="nonzero"/><path fill="#9b7956" d="M 173.886719 220.890625 C 173.882812 220.914062 173.875 220.929688 173.867188 220.953125 C 173.863281 220.949219 173.863281 220.945312 173.855469 220.941406 C 173.859375 220.945312 173.863281 220.949219 173.867188 220.953125 C 173.867188 220.960938 173.863281 220.96875 173.859375 220.976562 C 173.875 220.988281 173.890625 221 173.90625 221.011719 C 173.933594 221.042969 173.953125 221.070312 173.957031 221.078125 C 173.960938 221.082031 173.964844 221.085938 173.96875 221.089844 C 173.980469 221.09375 173.992188 221.097656 174.007812 221.101562 C 173.988281 221.082031 173.972656 221.0625 173.953125 221.042969 C 173.980469 221.0625 174.007812 221.082031 174.035156 221.097656 C 174.011719 221.003906 173.972656 220.898438 173.917969 220.804688 C 173.90625 220.832031 173.898438 220.863281 173.886719 220.890625 " fill-opacity="1" fill-rule="nonzero"/><path fill="#9b7956" d="M 153.726562 143.695312 C 153.726562 143.683594 153.722656 143.671875 153.722656 143.660156 C 153.722656 143.65625 153.722656 143.652344 153.722656 143.652344 C 153.722656 143.667969 153.726562 143.679688 153.726562 143.695312 Z M 155.265625 146.992188 C 155.246094 146.964844 155.226562 146.9375 155.203125 146.914062 C 155.222656 146.933594 155.242188 146.960938 155.265625 146.992188 Z M 155.484375 147.355469 C 155.433594 147.261719 155.378906 147.171875 155.328125 147.078125 C 155.539062 147.398438 155.804688 147.933594 155.484375 147.355469 Z M 164.863281 166.65625 C 168.132812 168.082031 171.535156 169.183594 174.984375 170.070312 C 177.363281 170.683594 179.804688 171.355469 182.238281 171.6875 C 182.246094 171.6875 182.253906 171.6875 182.265625 171.6875 C 182.539062 171.78125 182.824219 171.847656 183.101562 171.941406 C 183.675781 172.132812 184.226562 172.378906 184.78125 172.617188 C 184.867188 172.652344 184.941406 172.679688 185.003906 172.699219 C 185.167969 172.808594 185.335938 172.949219 185.429688 173.011719 C 185.90625 173.332031 186.328125 173.71875 186.796875 174.050781 C 186.800781 174.050781 186.804688 174.054688 186.808594 174.058594 C 186.90625 174.160156 187.003906 174.257812 187.101562 174.363281 C 187.554688 174.855469 187.972656 175.378906 188.363281 175.925781 C 188.449219 176.050781 188.5625 176.1875 188.664062 176.332031 C 188.699219 176.421875 188.734375 176.507812 188.769531 176.574219 C 189.039062 177.109375 189.320312 177.632812 189.5625 178.183594 C 189.765625 178.648438 189.953125 179.125 190.128906 179.601562 C 190.203125 179.800781 190.285156 180.011719 190.355469 180.222656 C 190.398438 180.429688 190.449219 180.65625 190.476562 180.761719 C 190.773438 181.921875 191 183.101562 191.164062 184.289062 C 191.257812 184.960938 191.332031 185.628906 191.386719 186.304688 C 191.414062 186.628906 191.433594 186.957031 191.457031 187.285156 C 191.460938 187.425781 191.464844 187.566406 191.46875 187.707031 C 191.523438 190.550781 191.308594 193.402344 190.890625 196.214844 C 190.804688 196.808594 190.707031 197.398438 190.597656 197.988281 C 190.542969 198.296875 190.214844 199.832031 190.277344 199.617188 C 189.960938 200.941406 189.609375 202.257812 189.207031 203.558594 C 188.4375 206.015625 187.441406 208.335938 186.386719 210.671875 C 186.382812 210.675781 186.382812 210.675781 186.382812 210.679688 C 186.242188 210.925781 186.113281 211.175781 185.972656 211.421875 C 185.679688 211.933594 185.375 212.4375 185.054688 212.933594 C 184.460938 213.851562 183.816406 214.75 183.101562 215.574219 C 181.84375 217.019531 180.394531 218.34375 178.871094 219.484375 C 178.804688 219.535156 178.082031 220.011719 178.101562 220.015625 C 177.976562 220.089844 177.851562 220.167969 177.722656 220.238281 C 177.382812 220.425781 177.039062 220.601562 176.6875 220.765625 C 176.359375 220.914062 174.914062 221.289062 176.277344 220.980469 C 176.105469 221.015625 175.515625 221.226562 175.054688 221.320312 C 174.984375 221.308594 174.886719 221.292969 174.742188 221.273438 C 174.707031 221.269531 174.511719 221.238281 174.328125 221.210938 C 174.238281 221.175781 174.144531 221.144531 174.058594 221.117188 C 174.050781 221.109375 174.042969 221.105469 174.035156 221.097656 C 174.035156 221.101562 174.035156 221.105469 174.035156 221.109375 C 174.027344 221.105469 174.015625 221.101562 174.007812 221.101562 C 174.019531 221.117188 174.03125 221.128906 174.042969 221.144531 C 174.042969 221.15625 174.046875 221.167969 174.046875 221.175781 C 174.054688 221.179688 174.0625 221.179688 174.074219 221.179688 C 174.074219 221.179688 174.074219 221.183594 174.074219 221.183594 C 174.066406 221.183594 174.054688 221.179688 174.046875 221.179688 C 174.046875 221.183594 174.050781 221.183594 174.050781 221.183594 C 174.046875 221.183594 174.046875 221.179688 174.046875 221.179688 C 174.019531 221.179688 173.996094 221.179688 173.992188 221.183594 C 174 221.175781 174.019531 221.175781 174.042969 221.175781 C 174.019531 221.152344 173.996094 221.121094 173.96875 221.089844 C 173.960938 221.085938 173.949219 221.082031 173.941406 221.082031 C 173.921875 221.074219 173.910156 221.074219 173.894531 221.070312 C 173.886719 221.054688 173.878906 221.039062 173.871094 221.019531 C 173.867188 221.007812 173.863281 220.996094 173.859375 220.984375 C 173.859375 220.980469 173.859375 220.980469 173.859375 220.976562 C 173.859375 220.972656 173.855469 220.972656 173.851562 220.972656 C 173.851562 220.960938 173.847656 220.953125 173.84375 220.945312 C 173.84375 220.949219 173.84375 220.957031 173.84375 220.960938 C 173.839844 220.960938 173.835938 220.957031 173.835938 220.957031 C 173.835938 220.949219 173.835938 220.9375 173.835938 220.929688 C 173.835938 220.925781 173.832031 220.917969 173.828125 220.914062 C 173.832031 220.914062 173.835938 220.917969 173.835938 220.921875 C 173.839844 220.917969 173.839844 220.917969 173.839844 220.914062 C 173.832031 220.90625 173.824219 220.894531 173.816406 220.886719 C 173.804688 220.851562 173.785156 220.816406 173.769531 220.78125 C 173.765625 220.75 173.761719 220.714844 173.757812 220.675781 C 173.757812 220.65625 173.753906 220.648438 173.753906 220.632812 C 173.789062 220.652344 173.820312 220.679688 173.847656 220.710938 C 173.847656 220.691406 173.847656 220.667969 173.84375 220.652344 C 173.847656 220.671875 173.847656 220.691406 173.847656 220.710938 C 173.875 220.738281 173.898438 220.769531 173.917969 220.804688 C 174.109375 220.234375 174.296875 219.667969 174.476562 219.09375 C 174.78125 218.117188 175.0625 217.136719 175.324219 216.148438 C 176.027344 213.492188 176.613281 210.789062 177.015625 208.070312 C 177.636719 203.867188 177.753906 199.574219 177.300781 195.347656 C 176.953125 192.082031 176.136719 188.726562 174.699219 185.777344 C 173.132812 182.570312 170.949219 180.421875 168.257812 178.222656 C 167.863281 177.902344 167.476562 177.574219 167.09375 177.238281 C 167.101562 177.242188 166.488281 176.6875 166.367188 176.585938 C 165.710938 175.957031 165.082031 175.300781 164.472656 174.628906 C 163.183594 173.214844 161.980469 171.714844 160.875 170.148438 C 160.605469 169.769531 160.339844 169.382812 160.082031 168.992188 C 160.050781 168.945312 159.675781 168.355469 159.597656 168.234375 C 159.1875 167.558594 158.792969 166.871094 158.417969 166.175781 C 157.6875 164.820312 157.023438 163.429688 156.417969 162.007812 C 159.058594 163.835938 161.902344 165.363281 164.863281 166.65625 Z M 158.761719 151.257812 C 158.753906 151.253906 158.742188 151.25 158.734375 151.242188 C 158.742188 151.25 158.753906 151.253906 158.761719 151.257812 Z M 158.714844 151.234375 C 158.710938 151.230469 158.707031 151.226562 158.703125 151.226562 C 158.707031 151.226562 158.710938 151.230469 158.714844 151.234375 Z M 174.5 221.316406 C 174.507812 221.328125 174.546875 221.335938 174.601562 221.34375 C 174.621094 221.351562 174.640625 221.359375 174.65625 221.363281 C 174.585938 221.359375 174.53125 221.347656 174.5 221.316406 Z M 173.703125 221.476562 C 173.707031 221.488281 173.714844 221.488281 173.71875 221.484375 C 173.679688 221.617188 173.652344 221.652344 173.703125 221.476562 Z M 173.6875 220.628906 C 173.683594 220.621094 173.679688 220.613281 173.675781 220.605469 C 173.679688 220.605469 173.6875 220.609375 173.691406 220.609375 C 173.691406 220.617188 173.691406 220.621094 173.6875 220.628906 Z M 173.804688 221.167969 C 173.800781 221.1875 173.796875 221.210938 173.792969 221.234375 C 173.796875 221.210938 173.800781 221.1875 173.804688 221.164062 C 173.804688 221.164062 173.804688 221.167969 173.804688 221.167969 Z M 174.695312 221.367188 C 174.6875 221.363281 174.675781 221.355469 174.664062 221.351562 C 174.699219 221.355469 174.734375 221.359375 174.773438 221.363281 C 174.746094 221.363281 174.71875 221.367188 174.695312 221.367188 Z M 164.351562 187.796875 C 164.390625 187.839844 164.414062 187.878906 164.425781 187.910156 C 164.410156 187.878906 164.386719 187.839844 164.351562 187.796875 Z M 157.421875 181.632812 C 159.027344 183.339844 160.746094 184.960938 162.554688 186.4375 C 162.683594 186.546875 163.574219 187.121094 164.082031 187.542969 C 164.0625 187.546875 164.121094 187.644531 164.347656 187.917969 C 164.578125 188.199219 164.8125 188.46875 165.027344 188.757812 C 165.070312 188.816406 165.1875 188.992188 165.289062 189.136719 C 165.390625 189.3125 165.519531 189.535156 165.558594 189.609375 C 165.945312 190.34375 166.257812 191.101562 166.558594 191.875 C 166.597656 191.980469 166.628906 192.058594 166.65625 192.117188 C 166.746094 192.480469 166.855469 192.839844 166.945312 193.203125 C 167.15625 194.078125 167.324219 194.960938 167.453125 195.847656 C 167.582031 196.726562 167.660156 197.609375 167.738281 198.492188 C 167.746094 198.613281 167.753906 198.695312 167.761719 198.75 C 167.761719 198.808594 167.761719 198.886719 167.761719 199.003906 C 167.769531 199.570312 167.773438 200.132812 167.765625 200.695312 C 167.726562 202.863281 167.53125 205.027344 167.214844 207.171875 C 166.84375 209.695312 166.507812 211.195312 165.871094 213.488281 C 165.28125 215.601562 164.285156 217.726562 164.015625 219.917969 C 163.6875 222.589844 164.652344 225.425781 166.34375 227.460938 C 171.316406 233.453125 179.292969 231.457031 184.796875 227.5 C 190.308594 223.539062 194.191406 217.835938 196.804688 211.5625 C 201.445312 200.421875 203.320312 186.226562 198.816406 174.738281 C 196.65625 169.222656 192.382812 164.574219 186.84375 162.597656 C 184.910156 161.910156 182.859375 161.617188 180.859375 161.195312 C 180.726562 161.167969 179.957031 161 179.859375 160.980469 C 179.382812 160.867188 178.910156 160.75 178.4375 160.628906 C 177.375 160.355469 176.316406 160.0625 175.265625 159.746094 C 171.839844 158.710938 168.511719 157.40625 165.308594 155.78125 C 165.21875 155.738281 165.132812 155.691406 165.046875 155.648438 C 164.777344 155.488281 164.5 155.335938 164.226562 155.175781 C 163.605469 154.804688 162.988281 154.417969 162.386719 154.015625 C 161.304688 153.289062 160.257812 152.503906 159.265625 151.65625 C 159.054688 151.476562 158.847656 151.292969 158.640625 151.109375 C 158.421875 150.917969 158.332031 150.851562 158.316406 150.847656 C 158.035156 150.542969 157.726562 150.167969 157.65625 150.09375 C 157.027344 149.402344 156.429688 148.675781 155.882812 147.914062 C 155.6875 147.644531 155.515625 147.304688 155.304688 147.039062 C 155.261719 146.964844 155.214844 146.886719 155.171875 146.808594 C 154.851562 146.21875 154.558594 145.613281 154.296875 144.992188 C 154.207031 144.769531 154.125 144.542969 154.035156 144.316406 C 153.957031 144.003906 153.867188 143.695312 153.804688 143.375 C 153.796875 143.332031 153.789062 143.289062 153.78125 143.242188 C 153.835938 142.875 153.890625 142.503906 153.949219 142.136719 C 154.101562 141.148438 154.296875 140.167969 154.476562 139.183594 C 154.503906 139.050781 154.519531 138.945312 154.535156 138.863281 C 154.554688 138.792969 154.574219 138.703125 154.601562 138.589844 C 154.734375 138.042969 154.863281 137.496094 155.007812 136.953125 C 155.917969 133.484375 157.171875 130.167969 158.695312 126.9375 C 158.730469 126.855469 158.761719 126.792969 158.789062 126.738281 C 158.816406 126.6875 158.847656 126.632812 158.886719 126.5625 C 159.09375 126.195312 159.292969 125.824219 159.507812 125.457031 C 159.925781 124.734375 160.367188 124.027344 160.828125 123.335938 C 161.648438 122.109375 162.542969 120.949219 163.488281 119.828125 C 163.605469 119.699219 163.902344 119.359375 163.980469 119.28125 C 164.25 119 164.523438 118.726562 164.804688 118.457031 C 165.363281 117.917969 165.9375 117.402344 166.53125 116.910156 C 167.019531 116.503906 167.523438 116.113281 168.035156 115.738281 C 168.214844 115.609375 168.398438 115.484375 168.578125 115.359375 C 168.535156 115.402344 169.359375 114.867188 169.515625 114.777344 C 170.777344 114.046875 172.089844 113.417969 173.441406 112.894531 C 173.738281 112.777344 174.039062 112.675781 174.335938 112.5625 C 173.167969 113 174.375 112.558594 174.582031 112.496094 C 175.453125 112.246094 176.335938 112.035156 177.226562 111.867188 C 181 111.148438 184.019531 111.175781 188.039062 111.613281 C 188.957031 111.714844 189.871094 111.84375 190.785156 112 C 191.1875 112.070312 191.59375 112.15625 192 112.230469 C 192.136719 112.253906 192.242188 112.273438 192.324219 112.285156 C 192.398438 112.304688 192.492188 112.332031 192.613281 112.363281 C 194.59375 112.882812 196.535156 113.507812 198.433594 114.296875 C 199.136719 114.59375 199.835938 114.90625 200.527344 115.242188 C 200.828125 115.386719 201.121094 115.539062 201.417969 115.691406 C 201.472656 115.722656 202.144531 116.082031 202.207031 116.121094 C 203.816406 117.054688 205.367188 118.09375 206.851562 119.226562 C 207.496094 119.71875 208.128906 120.226562 208.75 120.753906 C 209.085938 121.039062 209.417969 121.328125 209.746094 121.625 C 209.800781 121.671875 210.269531 122.105469 210.378906 122.199219 C 211.550781 123.332031 212.667969 124.53125 213.730469 125.769531 C 214.863281 127.085938 215.941406 128.457031 216.960938 129.871094 C 217.421875 130.511719 217.875 131.160156 218.316406 131.820312 C 218.515625 132.117188 218.710938 132.417969 218.90625 132.71875 C 219.015625 132.886719 219.125 133.058594 219.234375 133.230469 C 219.269531 133.285156 219.308594 133.355469 219.367188 133.445312 C 221.167969 136.492188 222.867188 139.613281 224.222656 142.902344 C 224.613281 143.851562 224.976562 144.816406 225.308594 145.789062 C 225.308594 145.785156 225.582031 146.648438 225.621094 146.753906 C 225.71875 147.078125 225.8125 147.402344 225.902344 147.730469 C 226.460938 149.777344 226.894531 151.863281 227.191406 153.96875 C 227.335938 154.96875 227.449219 155.976562 227.527344 156.988281 C 227.5625 157.40625 227.589844 157.824219 227.609375 158.246094 C 227.613281 158.296875 227.617188 158.335938 227.617188 158.367188 C 227.617188 158.445312 227.617188 158.539062 227.617188 158.652344 C 227.601562 160.824219 227.542969 162.972656 227.269531 165.128906 C 226.992188 167.300781 226.8125 168.140625 226.410156 169.613281 C 225.851562 171.664062 225.128906 173.667969 224.238281 175.59375 C 223.574219 177.035156 223.148438 177.796875 221.949219 179.566406 C 221.390625 180.386719 220.800781 181.183594 220.179688 181.953125 C 219.917969 182.273438 219.65625 182.589844 219.382812 182.902344 C 219.347656 182.921875 218.679688 183.632812 218.6875 183.625 C 216.808594 185.546875 216.257812 188.507812 218.066406 190.726562 C 219.652344 192.671875 223.105469 193.292969 224.996094 191.363281 C 231.457031 184.75 235.457031 176.488281 236.894531 167.253906 C 238.277344 158.359375 236.984375 149.171875 233.957031 140.773438 C 231.351562 133.53125 227.199219 126.574219 222.398438 120.644531 C 217.300781 114.347656 211.023438 109.164062 203.773438 105.703125 C 189.703125 98.984375 171.035156 99.195312 159.0625 110.1875 C 153.457031 115.332031 149.480469 122.136719 147.007812 129.375 C 144.578125 136.488281 142.917969 144.492188 143.652344 152.054688 C 144.308594 158.808594 146.738281 165.601562 150.058594 171.445312 C 152.136719 175.109375 154.546875 178.578125 157.421875 181.632812 " fill-opacity="1" fill-rule="nonzero"/><path fill="#9b7956" d="M 174.046875 221.179688 C 174.046875 221.179688 174.046875 221.179688 174.046875 221.175781 C 174.046875 221.175781 174.046875 221.175781 174.042969 221.175781 C 174.042969 221.179688 174.046875 221.179688 174.046875 221.179688 " fill-opacity="1" fill-rule="nonzero"/></svg>