<svg xmlns="http://www.w3.org/2000/svg" xmlns:xlink="http://www.w3.org/1999/xlink" width="500" zoomAndPan="magnify" viewBox="0 0 375 374.999991" height="500" preserveAspectRatio="xMidYMid meet" version="1.0"><defs><clipPath id="bfc34830b3"><path d="M 7.632812 7.632812 L 367.078125 7.632812 L 367.078125 367.078125 L 7.632812 367.078125 Z M 7.632812 7.632812 " clip-rule="nonzero"/></clipPath><clipPath id="4e41dedcf1"><path d="M 81 81 L 294.136719 81 L 294.136719 294.136719 L 81 294.136719 Z M 81 81 " clip-rule="nonzero"/></clipPath></defs><g clip-path="url(#bfc34830b3)"><path fill="#9b7956" d="M 187.355469 367.078125 C 139.371094 367.078125 94.191406 348.402344 60.285156 314.425781 C 26.3125 280.519531 7.632812 235.339844 7.632812 187.355469 C 7.632812 139.371094 26.3125 94.191406 60.285156 60.285156 C 94.191406 26.3125 139.371094 7.632812 187.355469 7.632812 C 235.339844 7.632812 280.519531 26.3125 314.425781 60.285156 C 348.402344 94.261719 367.078125 139.371094 367.078125 187.355469 C 367.078125 235.339844 348.402344 280.519531 314.425781 314.425781 C 280.519531 348.402344 235.339844 367.078125 187.355469 367.078125 Z M 187.355469 18.410156 C 142.246094 18.410156 99.792969 36.007812 67.902344 67.902344 C 36.007812 99.792969 18.410156 142.246094 18.410156 187.355469 C 18.410156 232.464844 36.007812 274.917969 67.902344 306.8125 C 99.792969 338.703125 142.246094 356.304688 187.355469 356.304688 C 232.464844 356.304688 274.917969 338.703125 306.8125 306.8125 C 338.703125 274.917969 356.304688 232.464844 356.304688 187.355469 C 356.304688 142.246094 338.703125 99.792969 306.8125 67.902344 C 274.917969 36.007812 232.464844 18.410156 187.355469 18.410156 Z M 187.355469 18.410156 " fill-opacity="1" fill-rule="nonzero"/></g><g clip-path="url(#4e41dedcf1)"><path fill="#9b7956" d="M 289.773438 183.035156 L 261.621094 183.035156 C 261.476562 180.8125 261.230469 178.601562 260.886719 176.402344 C 260.542969 174.203125 260.101562 172.023438 259.5625 169.867188 C 259.023438 167.707031 258.386719 165.574219 257.65625 163.472656 C 256.921875 161.371094 256.097656 159.308594 255.179688 157.28125 C 254.261719 155.25 253.253906 153.269531 252.160156 151.332031 C 251.0625 149.394531 249.878906 147.511719 248.613281 145.683594 C 247.347656 143.851562 246 142.082031 244.574219 140.371094 C 243.148438 138.664062 241.648438 137.023438 240.074219 135.449219 C 238.5 133.875 236.859375 132.375 235.152344 130.949219 C 233.441406 129.523438 231.671875 128.175781 229.84375 126.910156 C 228.011719 125.644531 226.128906 124.460938 224.191406 123.363281 C 222.253906 122.269531 220.273438 121.261719 218.246094 120.34375 C 216.214844 119.425781 214.152344 118.601562 212.050781 117.867188 C 209.949219 117.136719 207.816406 116.5 205.65625 115.960938 C 203.5 115.421875 201.320312 114.980469 199.121094 114.636719 C 196.921875 114.292969 194.710938 114.046875 192.488281 113.902344 L 192.488281 85.746094 C 192.488281 85.4375 192.460938 85.128906 192.398438 84.824219 C 192.339844 84.519531 192.25 84.226562 192.128906 83.9375 C 192.011719 83.652344 191.867188 83.378906 191.691406 83.121094 C 191.519531 82.863281 191.324219 82.625 191.105469 82.40625 C 190.886719 82.183594 190.648438 81.988281 190.386719 81.816406 C 190.128906 81.644531 189.859375 81.5 189.570312 81.378906 C 189.285156 81.261719 188.988281 81.171875 188.683594 81.109375 C 188.378906 81.050781 188.074219 81.019531 187.761719 81.019531 C 187.453125 81.019531 187.144531 81.050781 186.839844 81.109375 C 186.535156 81.171875 186.238281 81.261719 185.953125 81.378906 C 185.664062 81.5 185.394531 81.644531 185.136719 81.816406 C 184.878906 81.988281 184.636719 82.183594 184.417969 82.40625 C 184.199219 82.625 184.003906 82.863281 183.832031 83.121094 C 183.660156 83.378906 183.511719 83.652344 183.394531 83.9375 C 183.273438 84.226562 183.183594 84.519531 183.125 84.824219 C 183.0625 85.128906 183.035156 85.4375 183.035156 85.746094 L 183.035156 113.902344 C 180.8125 114.046875 178.601562 114.292969 176.402344 114.636719 C 174.203125 114.980469 172.023438 115.421875 169.867188 115.960938 C 167.707031 116.5 165.574219 117.136719 163.472656 117.867188 C 161.371094 118.601562 159.308594 119.425781 157.28125 120.34375 C 155.25 121.261719 153.269531 122.269531 151.332031 123.363281 C 149.394531 124.460938 147.511719 125.644531 145.683594 126.910156 C 143.851562 128.175781 142.082031 129.523438 140.371094 130.949219 C 138.664062 132.375 137.023438 133.875 135.449219 135.449219 C 133.875 137.023438 132.375 138.664062 130.949219 140.371094 C 129.523438 142.082031 128.175781 143.851562 126.910156 145.683594 C 125.644531 147.511719 124.460938 149.394531 123.363281 151.332031 C 122.269531 153.269531 121.261719 155.25 120.34375 157.28125 C 119.425781 159.308594 118.601562 161.371094 117.867188 163.472656 C 117.136719 165.574219 116.5 167.707031 115.960938 169.867188 C 115.421875 172.023438 114.980469 174.203125 114.636719 176.402344 C 114.292969 178.601562 114.046875 180.8125 113.902344 183.035156 L 85.75 183.035156 C 85.441406 183.035156 85.132812 183.0625 84.828125 183.125 C 84.523438 183.183594 84.226562 183.273438 83.941406 183.394531 C 83.652344 183.511719 83.382812 183.660156 83.125 183.832031 C 82.867188 184.003906 82.625 184.199219 82.40625 184.417969 C 82.1875 184.636719 81.992188 184.878906 81.820312 185.136719 C 81.648438 185.394531 81.5 185.664062 81.382812 185.953125 C 81.261719 186.238281 81.171875 186.535156 81.113281 186.839844 C 81.050781 187.144531 81.023438 187.453125 81.023438 187.761719 C 81.023438 188.074219 81.050781 188.378906 81.113281 188.683594 C 81.171875 188.988281 81.261719 189.285156 81.382812 189.570312 C 81.5 189.859375 81.648438 190.128906 81.820312 190.386719 C 81.992188 190.648438 82.1875 190.886719 82.40625 191.105469 C 82.625 191.324219 82.867188 191.519531 83.125 191.691406 C 83.382812 191.867188 83.652344 192.011719 83.941406 192.128906 C 84.226562 192.25 84.523438 192.339844 84.828125 192.398438 C 85.132812 192.460938 85.441406 192.488281 85.75 192.488281 L 113.902344 192.488281 C 114.046875 194.710938 114.292969 196.921875 114.636719 199.121094 C 114.980469 201.320312 115.421875 203.5 115.960938 205.65625 C 116.5 207.816406 117.136719 209.949219 117.867188 212.050781 C 118.601562 214.152344 119.425781 216.214844 120.34375 218.246094 C 121.261719 220.273438 122.269531 222.253906 123.363281 224.191406 C 124.460938 226.128906 125.644531 228.011719 126.910156 229.84375 C 128.175781 231.671875 129.523438 233.441406 130.949219 235.152344 C 132.375 236.859375 133.875 238.5 135.449219 240.074219 C 137.023438 241.648438 138.664062 243.148438 140.371094 244.574219 C 142.082031 246 143.851562 247.347656 145.683594 248.613281 C 147.511719 249.878906 149.394531 251.0625 151.332031 252.160156 C 153.269531 253.253906 155.25 254.261719 157.28125 255.179688 C 159.308594 256.097656 161.371094 256.921875 163.472656 257.65625 C 165.574219 258.386719 167.707031 259.023438 169.867188 259.5625 C 172.023438 260.101562 174.203125 260.542969 176.402344 260.886719 C 178.601562 261.230469 180.8125 261.476562 183.035156 261.621094 L 183.035156 289.777344 C 183.035156 290.085938 183.0625 290.394531 183.125 290.699219 C 183.183594 291.003906 183.273438 291.296875 183.394531 291.585938 C 183.511719 291.871094 183.660156 292.144531 183.832031 292.402344 C 184.003906 292.660156 184.199219 292.898438 184.417969 293.117188 C 184.636719 293.339844 184.878906 293.535156 185.136719 293.707031 C 185.394531 293.878906 185.664062 294.023438 185.953125 294.144531 C 186.238281 294.261719 186.535156 294.351562 186.839844 294.414062 C 187.144531 294.472656 187.453125 294.503906 187.761719 294.503906 C 188.074219 294.503906 188.378906 294.472656 188.683594 294.414062 C 188.988281 294.351562 189.285156 294.261719 189.570312 294.144531 C 189.859375 294.023438 190.128906 293.878906 190.386719 293.707031 C 190.648438 293.535156 190.886719 293.339844 191.105469 293.117188 C 191.324219 292.898438 191.519531 292.660156 191.691406 292.402344 C 191.867188 292.144531 192.011719 291.871094 192.128906 291.585938 C 192.25 291.296875 192.339844 291.003906 192.398438 290.699219 C 192.460938 290.394531 192.488281 290.085938 192.488281 289.777344 L 192.488281 261.621094 C 194.710938 261.476562 196.921875 261.230469 199.121094 260.886719 C 201.320312 260.542969 203.5 260.101562 205.65625 259.5625 C 207.816406 259.023438 209.949219 258.386719 212.050781 257.65625 C 214.152344 256.921875 216.214844 256.097656 218.246094 255.179688 C 220.273438 254.261719 222.253906 253.253906 224.191406 252.160156 C 226.128906 251.0625 228.011719 249.878906 229.84375 248.613281 C 231.671875 247.347656 233.441406 246 235.152344 244.574219 C 236.859375 243.148438 238.5 241.648438 240.074219 240.074219 C 241.648438 238.5 243.148438 236.859375 244.574219 235.152344 C 246 233.441406 247.347656 231.671875 248.613281 229.84375 C 249.878906 228.011719 251.0625 226.128906 252.160156 224.191406 C 253.253906 222.253906 254.261719 220.273438 255.179688 218.246094 C 256.097656 216.214844 256.921875 214.152344 257.65625 212.050781 C 258.386719 209.949219 259.023438 207.816406 259.5625 205.65625 C 260.101562 203.5 260.542969 201.320312 260.886719 199.121094 C 261.230469 196.921875 261.476562 194.710938 261.621094 192.488281 L 289.773438 192.488281 C 290.085938 192.488281 290.390625 192.460938 290.695312 192.398438 C 291 192.339844 291.296875 192.25 291.582031 192.128906 C 291.871094 192.011719 292.140625 191.867188 292.398438 191.691406 C 292.660156 191.519531 292.898438 191.324219 293.117188 191.105469 C 293.335938 190.886719 293.53125 190.648438 293.703125 190.386719 C 293.878906 190.128906 294.023438 189.859375 294.140625 189.570312 C 294.261719 189.285156 294.351562 188.988281 294.410156 188.683594 C 294.472656 188.378906 294.5 188.074219 294.5 187.761719 C 294.5 187.453125 294.472656 187.144531 294.410156 186.839844 C 294.351562 186.535156 294.261719 186.238281 294.140625 185.953125 C 294.023438 185.664062 293.878906 185.394531 293.703125 185.136719 C 293.53125 184.878906 293.335938 184.636719 293.117188 184.417969 C 292.898438 184.199219 292.660156 184.003906 292.398438 183.832031 C 292.140625 183.660156 291.871094 183.511719 291.582031 183.394531 C 291.296875 183.273438 291 183.183594 290.695312 183.125 C 290.390625 183.0625 290.085938 183.035156 289.773438 183.035156 Z M 252.164062 183.035156 L 243.1875 183.035156 C 243.050781 181.417969 242.839844 179.808594 242.558594 178.207031 C 242.277344 176.609375 241.929688 175.023438 241.507812 173.457031 C 241.089844 171.886719 240.601562 170.339844 240.046875 168.8125 C 239.496094 167.289062 238.875 165.789062 238.1875 164.316406 C 237.503906 162.84375 236.753906 161.40625 235.945312 160 C 235.132812 158.59375 234.261719 157.222656 233.328125 155.894531 C 232.398438 154.5625 231.410156 153.277344 230.367188 152.03125 C 229.324219 150.789062 228.226562 149.589844 227.082031 148.445312 C 225.933594 147.296875 224.734375 146.199219 223.492188 145.15625 C 222.246094 144.113281 220.960938 143.125 219.628906 142.195312 C 218.300781 141.261719 216.929688 140.390625 215.523438 139.582031 C 214.117188 138.769531 212.679688 138.019531 211.207031 137.335938 C 209.734375 136.648438 208.234375 136.03125 206.710938 135.476562 C 205.183594 134.921875 203.636719 134.433594 202.066406 134.015625 C 200.5 133.597656 198.914062 133.246094 197.316406 132.964844 C 195.714844 132.683594 194.105469 132.476562 192.488281 132.335938 L 192.488281 123.359375 C 194.402344 123.5 196.300781 123.730469 198.195312 124.039062 C 200.085938 124.351562 201.960938 124.746094 203.816406 125.222656 C 205.671875 125.703125 207.503906 126.261719 209.308594 126.902344 C 211.117188 127.542969 212.890625 128.265625 214.632812 129.0625 C 216.375 129.863281 218.078125 130.734375 219.742188 131.6875 C 221.410156 132.636719 223.027344 133.660156 224.601562 134.753906 C 226.175781 135.847656 227.699219 137.007812 229.167969 138.238281 C 230.636719 139.46875 232.050781 140.761719 233.40625 142.117188 C 234.761719 143.472656 236.054688 144.886719 237.285156 146.355469 C 238.515625 147.828125 239.675781 149.347656 240.769531 150.921875 C 241.863281 152.496094 242.886719 154.113281 243.835938 155.78125 C 244.789062 157.445312 245.664062 159.148438 246.460938 160.890625 C 247.261719 162.632812 247.980469 164.40625 248.621094 166.214844 C 249.261719 168.019531 249.820312 169.851562 250.300781 171.707031 C 250.777344 173.566406 251.171875 175.4375 251.484375 177.328125 C 251.796875 179.222656 252.023438 181.121094 252.164062 183.035156 Z M 183.035156 183.035156 L 141.792969 183.035156 C 141.925781 181.726562 142.121094 180.425781 142.367188 179.132812 C 142.613281 177.84375 142.914062 176.5625 143.273438 175.296875 C 143.628906 174.03125 144.039062 172.78125 144.5 171.550781 C 144.964844 170.320312 145.476562 169.109375 146.042969 167.921875 C 146.609375 166.734375 147.222656 165.574219 147.890625 164.4375 C 148.554688 163.304688 149.265625 162.199219 150.023438 161.125 C 150.785156 160.050781 151.585938 159.011719 152.433594 158.003906 C 153.28125 157 154.171875 156.03125 155.101562 155.101562 C 156.03125 154.171875 157 153.28125 158.003906 152.433594 C 159.011719 151.585938 160.050781 150.785156 161.125 150.023438 C 162.199219 149.265625 163.304688 148.554688 164.4375 147.890625 C 165.574219 147.222656 166.734375 146.609375 167.921875 146.042969 C 169.109375 145.476562 170.320312 144.964844 171.550781 144.5 C 172.78125 144.039062 174.03125 143.628906 175.296875 143.273438 C 176.5625 142.914062 177.84375 142.613281 179.132812 142.367188 C 180.425781 142.121094 181.726562 141.925781 183.035156 141.792969 Z M 183.035156 192.488281 L 183.035156 233.734375 C 181.726562 233.597656 180.425781 233.40625 179.132812 233.15625 C 177.84375 232.910156 176.5625 232.609375 175.296875 232.25 C 174.03125 231.894531 172.78125 231.484375 171.550781 231.023438 C 170.320312 230.558594 169.109375 230.046875 167.921875 229.480469 C 166.734375 228.914062 165.574219 228.300781 164.4375 227.632812 C 163.304688 226.96875 162.199219 226.257812 161.125 225.5 C 160.050781 224.738281 159.011719 223.9375 158.003906 223.089844 C 157 222.242188 156.03125 221.351562 155.101562 220.421875 C 154.171875 219.492188 153.28125 218.523438 152.433594 217.519531 C 151.585938 216.511719 150.785156 215.472656 150.023438 214.398438 C 149.265625 213.324219 148.554688 212.21875 147.890625 211.085938 C 147.222656 209.949219 146.609375 208.789062 146.042969 207.601562 C 145.476562 206.414062 144.964844 205.203125 144.5 203.972656 C 144.039062 202.742188 143.628906 201.492188 143.273438 200.226562 C 142.914062 198.960938 142.613281 197.683594 142.367188 196.390625 C 142.121094 195.097656 141.925781 193.796875 141.792969 192.488281 Z M 192.488281 192.488281 L 233.734375 192.488281 C 233.597656 193.796875 233.40625 195.097656 233.15625 196.390625 C 232.910156 197.683594 232.609375 198.960938 232.25 200.226562 C 231.894531 201.492188 231.484375 202.742188 231.023438 203.972656 C 230.558594 205.203125 230.046875 206.414062 229.480469 207.601562 C 228.914062 208.789062 228.300781 209.949219 227.632812 211.085938 C 226.96875 212.21875 226.257812 213.324219 225.5 214.398438 C 224.738281 215.472656 223.9375 216.511719 223.089844 217.519531 C 222.242188 218.523438 221.351562 219.492188 220.421875 220.421875 C 219.492188 221.351562 218.523438 222.242188 217.519531 223.089844 C 216.511719 223.9375 215.472656 224.738281 214.398438 225.5 C 213.324219 226.257812 212.21875 226.96875 211.085938 227.632812 C 209.949219 228.300781 208.789062 228.914062 207.601562 229.480469 C 206.414062 230.046875 205.203125 230.558594 203.972656 231.023438 C 202.742188 231.484375 201.492188 231.894531 200.226562 232.25 C 198.960938 232.609375 197.683594 232.910156 196.390625 233.15625 C 195.097656 233.40625 193.796875 233.597656 192.488281 233.734375 Z M 192.488281 183.035156 L 192.488281 141.792969 C 193.796875 141.925781 195.097656 142.121094 196.390625 142.367188 C 197.683594 142.613281 198.960938 142.914062 200.226562 143.273438 C 201.492188 143.628906 202.742188 144.039062 203.972656 144.5 C 205.203125 144.964844 206.414062 145.476562 207.601562 146.042969 C 208.789062 146.609375 209.949219 147.222656 211.085938 147.890625 C 212.21875 148.554688 213.324219 149.265625 214.398438 150.023438 C 215.472656 150.785156 216.511719 151.585938 217.519531 152.433594 C 218.523438 153.28125 219.492188 154.171875 220.421875 155.101562 C 221.351562 156.03125 222.242188 157 223.089844 158.003906 C 223.9375 159.011719 224.738281 160.050781 225.5 161.125 C 226.257812 162.199219 226.96875 163.304688 227.632812 164.4375 C 228.300781 165.574219 228.914062 166.734375 229.480469 167.921875 C 230.046875 169.109375 230.558594 170.320312 231.023438 171.550781 C 231.484375 172.78125 231.894531 174.03125 232.25 175.296875 C 232.609375 176.5625 232.910156 177.84375 233.15625 179.132812 C 233.40625 180.425781 233.597656 181.726562 233.734375 183.035156 Z M 183.035156 123.359375 L 183.035156 132.335938 C 181.417969 132.476562 179.808594 132.683594 178.207031 132.964844 C 176.609375 133.246094 175.023438 133.597656 173.457031 134.015625 C 171.886719 134.433594 170.339844 134.921875 168.8125 135.476562 C 167.289062 136.03125 165.789062 136.648438 164.316406 137.335938 C 162.84375 138.019531 161.40625 138.769531 160 139.582031 C 158.59375 140.390625 157.222656 141.261719 155.894531 142.195312 C 154.5625 143.125 153.277344 144.113281 152.03125 145.15625 C 150.789062 146.199219 149.589844 147.296875 148.445312 148.445312 C 147.296875 149.589844 146.199219 150.789062 145.15625 152.03125 C 144.113281 153.277344 143.125 154.5625 142.195312 155.894531 C 141.261719 157.222656 140.390625 158.59375 139.582031 160 C 138.769531 161.40625 138.019531 162.84375 137.335938 164.316406 C 136.648438 165.789062 136.03125 167.289062 135.476562 168.8125 C 134.921875 170.339844 134.433594 171.886719 134.015625 173.457031 C 133.597656 175.023438 133.246094 176.609375 132.964844 178.207031 C 132.683594 179.808594 132.476562 181.417969 132.335938 183.035156 L 123.359375 183.035156 C 123.5 181.121094 123.730469 179.222656 124.039062 177.328125 C 124.351562 175.4375 124.746094 173.566406 125.222656 171.707031 C 125.703125 169.851562 126.261719 168.019531 126.902344 166.214844 C 127.542969 164.40625 128.265625 162.632812 129.0625 160.890625 C 129.863281 159.148438 130.734375 157.445312 131.6875 155.78125 C 132.636719 154.113281 133.660156 152.496094 134.753906 150.921875 C 135.847656 149.347656 137.007812 147.828125 138.238281 146.355469 C 139.46875 144.886719 140.761719 143.472656 142.117188 142.117188 C 143.472656 140.761719 144.886719 139.46875 146.355469 138.238281 C 147.828125 137.007812 149.347656 135.847656 150.921875 134.753906 C 152.496094 133.660156 154.113281 132.636719 155.78125 131.6875 C 157.445312 130.734375 159.148438 129.859375 160.890625 129.0625 C 162.632812 128.265625 164.40625 127.542969 166.214844 126.902344 C 168.019531 126.261719 169.851562 125.703125 171.707031 125.222656 C 173.566406 124.746094 175.4375 124.351562 177.328125 124.039062 C 179.222656 123.730469 181.121094 123.5 183.035156 123.359375 Z M 123.359375 192.488281 L 132.335938 192.488281 C 132.476562 194.105469 132.683594 195.714844 132.964844 197.316406 C 133.246094 198.914062 133.597656 200.5 134.015625 202.066406 C 134.433594 203.636719 134.921875 205.183594 135.476562 206.710938 C 136.03125 208.234375 136.648438 209.734375 137.335938 211.207031 C 138.019531 212.679688 138.769531 214.117188 139.582031 215.523438 C 140.390625 216.929688 141.261719 218.300781 142.195312 219.628906 C 143.125 220.960938 144.113281 222.246094 145.15625 223.492188 C 146.199219 224.734375 147.296875 225.933594 148.445312 227.082031 C 149.589844 228.226562 150.789062 229.324219 152.03125 230.367188 C 153.277344 231.410156 154.5625 232.398438 155.894531 233.328125 C 157.222656 234.261719 158.59375 235.132812 160 235.945312 C 161.40625 236.753906 162.84375 237.503906 164.316406 238.1875 C 165.789062 238.875 167.289062 239.496094 168.8125 240.046875 C 170.339844 240.601562 171.886719 241.089844 173.457031 241.507812 C 175.023438 241.929688 176.609375 242.277344 178.207031 242.558594 C 179.808594 242.839844 181.417969 243.050781 183.035156 243.1875 L 183.035156 252.164062 C 181.121094 252.023438 179.222656 251.796875 177.328125 251.484375 C 175.4375 251.171875 173.566406 250.777344 171.707031 250.300781 C 169.851562 249.820312 168.019531 249.261719 166.214844 248.621094 C 164.40625 247.980469 162.632812 247.261719 160.890625 246.460938 C 159.148438 245.664062 157.445312 244.789062 155.78125 243.835938 C 154.113281 242.886719 152.496094 241.863281 150.921875 240.769531 C 149.347656 239.675781 147.828125 238.515625 146.355469 237.285156 C 144.886719 236.054688 143.472656 234.761719 142.117188 233.40625 C 140.761719 232.050781 139.46875 230.636719 138.238281 229.167969 C 137.007812 227.699219 135.847656 226.175781 134.753906 224.601562 C 133.660156 223.027344 132.636719 221.410156 131.6875 219.742188 C 130.734375 218.078125 129.859375 216.375 129.0625 214.632812 C 128.265625 212.890625 127.542969 211.117188 126.902344 209.308594 C 126.261719 207.503906 125.703125 205.671875 125.222656 203.816406 C 124.746094 201.960938 124.351562 200.085938 124.039062 198.195312 C 123.730469 196.300781 123.5 194.402344 123.359375 192.488281 Z M 192.488281 252.164062 L 192.488281 243.1875 C 194.105469 243.050781 195.714844 242.839844 197.316406 242.558594 C 198.914062 242.277344 200.5 241.929688 202.066406 241.507812 C 203.636719 241.089844 205.183594 240.601562 206.710938 240.046875 C 208.234375 239.496094 209.734375 238.875 211.207031 238.1875 C 212.679688 237.503906 214.117188 236.753906 215.523438 235.945312 C 216.929688 235.132812 218.300781 234.261719 219.628906 233.328125 C 220.960938 232.398438 222.246094 231.410156 223.492188 230.367188 C 224.734375 229.324219 225.933594 228.226562 227.082031 227.082031 C 228.226562 225.933594 229.324219 224.734375 230.367188 223.492188 C 231.410156 222.246094 232.398438 220.960938 233.328125 219.628906 C 234.261719 218.300781 235.132812 216.929688 235.945312 215.523438 C 236.753906 214.117188 237.503906 212.679688 238.1875 211.207031 C 238.875 209.734375 239.496094 208.234375 240.046875 206.710938 C 240.601562 205.183594 241.089844 203.636719 241.507812 202.066406 C 241.929688 200.5 242.277344 198.914062 242.558594 197.316406 C 242.839844 195.714844 243.050781 194.105469 243.1875 192.488281 L 252.164062 192.488281 C 252.023438 194.402344 251.796875 196.300781 251.484375 198.195312 C 251.171875 200.085938 250.777344 201.960938 250.300781 203.816406 C 249.820312 205.671875 249.261719 207.503906 248.621094 209.308594 C 247.980469 211.117188 247.261719 212.890625 246.460938 214.632812 C 245.664062 216.375 244.789062 218.078125 243.835938 219.742188 C 242.886719 221.410156 241.863281 223.027344 240.769531 224.601562 C 239.675781 226.175781 238.515625 227.699219 237.285156 229.167969 C 236.054688 230.636719 234.761719 232.050781 233.40625 233.40625 C 232.050781 234.761719 230.636719 236.054688 229.167969 237.285156 C 227.699219 238.515625 226.175781 239.675781 224.601562 240.769531 C 223.027344 241.863281 221.410156 242.886719 219.742188 243.835938 C 218.078125 244.789062 216.375 245.664062 214.632812 246.460938 C 212.890625 247.261719 211.117188 247.980469 209.308594 248.621094 C 207.503906 249.261719 205.671875 249.820312 203.816406 250.300781 C 201.960938 250.777344 200.085938 251.171875 198.195312 251.484375 C 196.300781 251.796875 194.402344 252.023438 192.488281 252.164062 Z M 192.488281 252.164062 " fill-opacity="1" fill-rule="nonzero"/></g></svg>